# File created by Blade
# Date/Time:  Tue Jan 27 18:50:05 2015
# Frame Rate: 120.000 fps
#------------------------------------------------------
:FULLY-SPECIFIED
:DEGREES
1892
root 0.361429 31.639961 -6.109387 10.747772 -29.595688 -16.872189
Spine 9.424540 2.262190 2.364941
Head -3.972464 -34.830962 19.277594
LeftShoulder -15.261576 18.143220 16.022523
LeftArm 5.052446 -34.626842 -74.586402
LeftForeArm -1.070962 -0.000000 134.754925
LeftHand -21.399485 -0.000000 21.755662
LeftHandThumb1 -26.253704 0.000000 33.147579
RightShoulder -5.817685 7.298847 -5.380679
RightArm 39.597034 -63.072663 58.675326
RightForeArm -33.492897 0.000000 75.253105
RightHand -13.824188 -0.000000 1.116665
RightHandThumb1 -24.326973 -0.000000 -32.862282
LeftUpLeg -13.758385 23.267595 -2.260407
LeftLeg 23.058127 -0.000000 -0.000000
LeftFoot -45.077757 37.997742 -33.660483
LeftToeBase 7.366322 -0.000000 -0.000000
RightUpLeg -89.927197 -44.186419 22.964512
RightLeg 107.230761 -0.000000 -0.000000
RightFoot -3.207015 -18.146268 18.502627
RightToeBase 12.227708 -0.000000 -0.000000
1893
root 0.347615 31.648732 -6.114867 10.798935 -29.588599 -16.951161
Spine 9.463760 2.276650 2.451129
Head -3.966436 -34.937551 19.260269
LeftShoulder -15.283654 18.178388 15.953594
LeftArm 5.031802 -34.494301 -74.437058
LeftForeArm -1.146864 -0.000000 134.820522
LeftHand -21.408854 -0.000000 21.740407
LeftHandThumb1 -26.253704 0.000000 33.147579
RightShoulder -5.710589 7.382981 -5.380312
RightArm 40.300930 -63.356426 57.994364
RightForeArm -33.423950 -0.000000 75.182220
RightHand -13.482844 -0.000000 1.710408
RightHandThumb1 -24.326973 -0.000000 -32.862282
LeftUpLeg -13.767093 23.233642 -2.167540
LeftLeg 23.043400 -0.000000 -0.000000
LeftFoot -45.032716 38.004856 -33.711150
LeftToeBase 7.365091 -0.000000 -0.000000
RightUpLeg -90.277394 -44.236496 23.488387
RightLeg 109.240317 -0.000000 -0.000000
RightFoot -2.275361 -17.607012 18.269503
RightToeBase 12.281054 -0.000000 -0.000000
1894
root 0.335336 31.656851 -6.119951 10.861117 -29.551751 -17.021026
Spine 9.474915 2.267933 2.543901
Head -3.952572 -35.067501 19.210009
LeftShoulder -15.302744 18.208569 15.878793
LeftArm 5.006435 -34.357267 -74.293155
LeftForeArm -1.243270 0.000000 134.900434
LeftHand -21.432829 -0.000000 21.662597
LeftHandThumb1 -26.253704 0.000000 33.147579
RightShoulder -5.608909 7.458942 -5.373356
RightArm 41.041785 -63.627174 57.240828
RightForeArm -33.307144 -0.000000 75.194200
RightHand -13.192226 -0.000000 2.349907
RightHandThumb1 -24.326973 -0.000000 -32.862282
LeftUpLeg -13.794408 23.150271 -2.077505
LeftLeg 23.042566 -0.000000 -0.000000
LeftFoot -45.044322 38.090261 -33.712604
LeftToeBase 7.527700 -0.000000 -0.000000
RightUpLeg -90.645089 -44.318227 24.038383
RightLeg 111.320104 -0.000000 -0.000000
RightFoot -1.471688 -17.135103 18.113326
RightToeBase 12.492799 -0.000000 -0.000000
1895
root 0.325428 31.665674 -6.125867 10.933941 -29.491147 -17.092755
Spine 9.482505 2.238528 2.655752
Head -3.973912 -35.177163 19.162225
LeftShoulder -15.336855 18.244232 15.768767
LeftArm 5.011068 -34.238265 -74.170600
LeftForeArm -1.249114 0.000000 134.987402
LeftHand -21.478915 -0.000000 21.591311
LeftHandThumb1 -26.253704 0.000000 33.147579
RightShoulder -5.496552 7.553185 -5.408395
RightArm 41.638874 -63.856399 56.655745
RightForeArm -33.333947 -0.000000 75.192944
RightHand -12.621781 -0.000000 3.068517
RightHandThumb1 -24.326973 -0.000000 -32.862282
LeftUpLeg -13.853561 23.024548 -1.990202
LeftLeg 23.084197 -0.000000 -0.000000
LeftFoot -45.121634 37.944786 -33.975011
LeftToeBase 7.339135 -0.000000 -0.000000
RightUpLeg -91.027031 -44.427345 24.633308
RightLeg 113.414815 -0.000000 -0.000000
RightFoot -0.621080 -16.815126 17.598524
RightToeBase 12.540992 -0.000000 -0.000000
